<svg xmlns="http://www.w3.org/2000/svg" xmlns:xlink="http://www.w3.org/1999/xlink" version="1.1" x="0px" y="0px" viewBox="0 0 100 125" enable-background="new 0 0 100 100" xml:space="preserve">
    <g>
        <g>
            <path d="M86.871,90.189c0.156,0.148,0.336,0.271,0.534,0.353C87.208,90.468,87.027,90.345,86.871,90.189z"/>
            <path d="M89.195,90.189c-0.156,0.156-0.336,0.279-0.534,0.353C88.858,90.46,89.038,90.337,89.195,90.189z"/>
        </g>
    </g>
    <g>
        <g>
            <path d="M94.514,82.538L82.718,70.735l8.759-4.252c0.599-0.287,0.96-0.911,0.919-1.576c-0.041-0.665-0.476-1.231-1.108-1.453    l-14.283-4.917v-47.56c0-0.911-0.739-1.642-1.642-1.642H6.642C5.739,9.335,5,10.066,5,10.977v57.525    c0,0.911,0.739,1.642,1.642,1.642H62l5.787,16.819c0.213,0.624,0.788,1.059,1.453,1.1c0.665,0.049,1.289-0.32,1.576-0.919    l4.252-8.758l11.804,11.804c0.156,0.148,0.336,0.271,0.534,0.353c0.074,0.025,0.148,0.049,0.222,0.066    c0.131,0.041,0.263,0.058,0.402,0.058c0.14,0,0.279-0.016,0.41-0.058c0.074-0.016,0.148-0.041,0.222-0.066    c0.197-0.082,0.378-0.205,0.534-0.353l5.089-5.089c0.016-0.016,0.033-0.033,0.041-0.049l0.189-0.189    C95.162,84.221,95.162,83.187,94.514,82.538z M8.283,12.619h65.438v33.359L56.829,29.085c-0.616-0.616-1.707-0.616-2.323,0    L31.669,51.929l-7.642-7.642c-0.616-0.616-1.707-0.616-2.323,0L8.283,57.708V12.619z M8.283,66.86v-4.515l14.578-14.578    l7.642,7.642c0.616,0.616,1.707,0.616,2.323,0l22.844-22.844l18.05,18.05v6.797l-14.948-5.147    c-0.632-0.213-1.305-0.033-1.724,0.427c-0.476,0.419-0.681,1.108-0.46,1.748l4.277,12.42H8.283z M88.029,86.708l-12.272-12.28    c-0.369-0.369-0.911-0.542-1.428-0.452c-0.525,0.082-0.977,0.419-1.207,0.895l-3.53,7.264l-4.859-14.119    c-0.016-0.057-0.033-0.107-0.049-0.156l-3.94-11.451l25.725,8.857l-7.265,3.521c-0.476,0.238-0.812,0.681-0.903,1.207    c-0.082,0.525,0.082,1.059,0.46,1.436l12.272,12.272L88.029,86.708z"/>
        </g>
        <g>
            <path d="M26.785,37.257c-4.484,0-8.131-3.648-8.131-8.131c0-4.484,3.648-8.132,8.131-8.132s8.131,3.648,8.131,8.132    C34.916,33.61,31.269,37.257,26.785,37.257z M26.785,24.278c-2.673,0-4.848,2.175-4.848,4.848c0,2.673,2.175,4.848,4.848,4.848    s4.848-2.175,4.848-4.848C31.633,26.453,29.458,24.278,26.785,24.278z"/>
        </g>
    </g>
</svg>