<svg xmlns="http://www.w3.org/2000/svg" viewBox="0 0 100 125"><path d="M86.871 90.189c.156.148.336.271.534.353a1.518 1.518 0 01-.534-.353zm2.324 0a1.509 1.509 0 01-.534.353c.197-.082.377-.205.534-.353z"/><path d="M94.514 82.538L82.718 70.735l8.759-4.252c.599-.287.96-.911.919-1.576a1.645 1.645 0 00-1.108-1.453l-14.283-4.917v-47.56c0-.911-.739-1.642-1.642-1.642H6.642c-.903 0-1.642.731-1.642 1.642v57.525c0 .911.739 1.642 1.642 1.642H62l5.787 16.819a1.64 1.64 0 001.453 1.1 1.62 1.62 0 001.576-.919l4.252-8.758L86.872 90.19c.156.148.336.271.534.353.074.025.148.049.222.066.131.041.263.058.402.058.14 0 .279-.016.41-.058.074-.016.148-.041.222-.066.197-.082.378-.205.534-.353l5.089-5.089a.222.222 0 00.041-.049l.189-.189a1.634 1.634 0 00-.001-2.325zM8.283 12.619h65.438v33.359L56.829 29.085c-.616-.616-1.707-.616-2.323 0L31.669 51.929l-7.642-7.642c-.616-.616-1.707-.616-2.323 0L8.283 57.708V12.619zm0 54.241v-4.515l14.578-14.578 7.642 7.642c.616.616 1.707.616 2.323 0L55.67 32.565l18.05 18.05v6.797l-14.948-5.147a1.624 1.624 0 00-1.724.427 1.628 1.628 0 00-.46 1.748l4.277 12.42H8.283zm79.746 19.848l-12.272-12.28a1.641 1.641 0 00-1.428-.452 1.621 1.621 0 00-1.207.895l-3.53 7.264-4.859-14.119c-.016-.057-.033-.107-.049-.156l-3.94-11.451 25.725 8.857-7.265 3.521a1.665 1.665 0 00-.903 1.207 1.659 1.659 0 00.46 1.436l12.272 12.272-3.004 3.006z"/><path d="M26.785 37.257c-4.484 0-8.131-3.648-8.131-8.131 0-4.484 3.648-8.132 8.131-8.132s8.131 3.648 8.131 8.132-3.647 8.131-8.131 8.131zm0-12.979a4.854 4.854 0 00-4.848 4.848c0 2.673 2.175 4.848 4.848 4.848s4.848-2.175 4.848-4.848a4.854 4.854 0 00-4.848-4.848z"/></svg>